#!OML:ASF F:\VICON\USERDATA\INSTALL\rory3\rory3.ASF
:FULLY-SPECIFIED
:DEGREES
85
root -0.25238494335481676 18.211700844684955 15.472938755913642 -3.7636144714682835 0.6278081083090481 -6.532255159612882
lfemur -20.631942974820348 -3.432942528879361 -12.960456898633414
ltibia 37.425395415374446
lfoot -8.565675852015186 -3.4616057352759215
ltoes -15.598682817850364
rfemur -5.115321671652566 8.239053111096636 32.86975833284279
rtibia 29.43233079425432
rfoot -8.564357085357178 -6.238363868795494
rtoes 9.486715905355837
lowerback 9.164467310126057 -0.2973186990549847 4.8765849949898685
upperback 0.35063483747569474 0.5400975106224069 2.586256207299498
thorax -5.3480506506693155 0.18752258095859625 0.49574972503413495
lowerneck -14.896211240126537 -2.8389180597755352 -2.506599166093524
upperneck 23.082570688471918 -3.399640068975498 0.5877712249049843
head 9.768265748867298 -1.7010655590443602 0.31707034309753585
lclavicle -1.3882063383173157e-15 -1.844311813452755e-15
lhumerus -32.608695958298135 3.415388190658567 80.59713856256943
lradius 29.980933806552997
lwrist 8.421630539862093
lhand -27.203017560060097 23.864032458595712
lfingers 7.125019999999999
lthumb -1.3105423976397532 53.030349339127824
rclavicle -1.3857784865332538e-15 -1.8426884060127324e-15
rhumerus -32.45508768325305 -23.733774477032938 -75.54047140943499
rradius 21.08918147802601
rwrist 8.168956964993647
rhand -17.566412017482598 21.519979973892898
rfingers 7.125019999999999
rthumb 8.62209010073938 -8.1074670770715
86
root -0.29452135903441223 18.192479085029646 17.57980545857597 -3.383705682285813 0.057982217887777576 -6.153126398125182
lfemur -20.636463408217352 -4.92382371115824 -12.832069102988818
ltibia 31.61298424884461
lfoot -9.076903900830812 -2.9842791713596655
ltoes -15.376980465330009
rfemur -3.95922814125098 8.51926397471258 32.61960848631021
rtibia 30.755126686781647
rfoot -8.26085562846115 -6.2976134189785675
rtoes 9.480883160909396
lowerback 8.910934878722166 0.05181107846804686 4.610675530628342
upperback 0.24142370755878528 0.9708211209190194 2.39138763993476
thorax -5.337510705179086 0.4033064484836357 0.08466346493382648
lowerneck -14.883449144137158 -2.903651314987376 -2.3989045065874377
upperneck 22.901269416865006 -3.541111502669797 0.5485644363742669
head 9.68567542121549 -1.754027911591429 0.2692680746930167
lclavicle -1.388275453277147e-15 -1.8444098516996982e-15
lhumerus -32.79442490466206 3.8541780900895213 80.51604325520239
lradius 29.9690204809314
lwrist 8.393375877934318
lhand -27.305753255086618 23.71754024124654
lfingers 7.125019999999999
lthumb -1.440738411982673 52.918921643873915
rclavicle -1.385345415857823e-15 -1.842364324880134e-15
rhumerus -31.444519725654548 -22.395033574489744 -76.61505589445555
rradius 21.942672918924966
rwrist 6.663399174247703
rhand -17.783584284115143 21.297004518683792
rfingers 7.125019999999999
rthumb 8.45090096424584 -8.362075174952592
87
root -0.3203718515240582 18.099336177044165 19.807203576744527 -3.0799126198467883 -0.6820661004175248 -5.902416430224594
lfemur -20.123025746909864 -5.5193269057471195 -12.642602364839682
ltibia 25.83942357304234
lfoot -9.421389268866314 -2.37993545671989
ltoes -15.195294071294668
rfemur -3.2042345650895356 8.69953984109106 32.643418317848244
rtibia 32.12022944416957
rfoot -7.607233194449288 -6.4627625720297255
rtoes 9.014571128351985
lowerback 8.987883440855635 0.4958080396176656 4.681385913660447
upperback 0.07520717928382215 1.550045041775863 2.216286782241351
thorax -5.406713321641587 0.677959680627928 -0.5164470714176292
lowerneck -14.960690751178952 -2.941470578116014 -2.283311282890011
upperneck 22.663945571214043 -3.6230481077219148 0.4696397291145412
head 9.5972061055291 -1.7830548626292801 0.2040847698861339
lclavicle -1.3883114440601028e-15 -1.8444717828177944e-15
lhumerus -33.17768037106671 4.08602295821546 80.4412602050083
lradius 30.16746411402375
lwrist 8.178190565436196
lhand -27.334854351434323 23.680329414589846
lfingers 7.125019999999999
lthumb -1.4486299736572352 52.94881147861819
rclavicle -1.3859489689286949e-15 -1.8428805027415243e-15
rhumerus -30.379108378750406 -21.156925937929877 -77.32520570265963
rradius 22.81093638751881
rwrist 5.207788643474331
rhand -18.04018839129682 21.286220619418074
rfingers 7.125019999999999
rthumb 8.216706470161746 -8.453608854464006
88
root -0.3082791778743018 17.904985995414403 21.31793504139427 -2.9073102178959926 -1.1764678885325455 -5.722004809491823
lfemur -19.372431027912448 -4.71822270823968 -12.616175647686985
ltibia 21.016251048949663
lfoot -8.688724677461826 -1.8182876850204157
ltoes -14.476373564268874
rfemur -2.3273541445102097 8.780882255520748 32.809769319745755
rtibia 32.872226260210404
rfoot -6.662343149099911 -6.756748486941797
rtoes 8.050630923225217
lowerback 9.190403686417735 0.8887446732074538 4.59872835178445
upperback -0.06470342550485883 2.0062847822558916 2.0430616058459807
thorax -5.437192289798144 0.9071162310553897 -1.0865986051139773
lowerneck -15.110431144384775 -2.9539473891863515 -2.159860499778828
upperneck 22.35130138764015 -3.648047036998328 0.3428018186554625
head 9.496531772899091 -1.7906404277967853 0.12041687656501815
lclavicle -1.3881305521571209e-15 -1.8443151134563255e-15
lhumerus -33.3636619551096 4.391690258207237 80.47314245014785
lradius 30.366356605893724
lwrist 7.913307201690637
lhand -27.311180411117277 23.686036393502093
lfingers 7.125019999999999
lthumb -1.375480652815153 53.02238677525244
rclavicle -1.3865788276909315e-15 -1.8434843909230206e-15
rhumerus -29.322223888257795 -19.946175738376247 -77.83971473908217
rradius 23.751406059249838
rwrist 3.7588783995480695
rhand -18.30096974881792 21.529153452838912
rfingers 7.125019999999999
rthumb 7.963934893436912 -8.267657256039227
